<?xml version="1.0" standalone="no"?>
<!DOCTYPE svg PUBLIC "-//W3C//DTD SVG 1.1//EN" "http://www.w3.org/Graphics/SVG/1.1/DTD/svg11.dtd">
<svg width="520px" height="520px" version="1.1" xmlns="http://www.w3.org/2000/svg" xmlns:xlink="http://www.w3.org/1999/xlink" xml:space="preserve" style="fill-rule:evenodd;clip-rule:evenodd;stroke-linejoin:round;stroke-miterlimit:1.41421;">
    <g>
        <path d="M469.147,260.427C469.147,376.173 375.317,470 259.573,470C143.83,470 50,376.173 50,260.427C50,144.683 143.83,50.8533 259.573,50.8533C375.317,50.8533 469.147,144.683 469.147,260.427Z" style="fill:url(#tag1);"/>
        <path d="M259.573,0.853333C224.553,0.853333 190.553,7.72333 158.52,21.2733C127.603,34.35 99.85,53.06 76.0267,76.88C52.2033,100.703 33.4933,128.46 20.4167,159.373C6.87,191.41 0,225.407 0,260.427C0,295.45 6.87,329.447 20.4167,361.48C33.4933,392.397 52.2033,420.153 76.0267,443.973C99.85,467.797 127.603,486.507 158.52,499.583C190.553,513.13 224.553,520 259.573,520C294.593,520 328.593,513.13 360.627,499.583C391.543,486.507 419.297,467.797 443.12,443.973C466.94,420.153 485.65,392.397 498.727,361.48C512.277,329.447 519.147,295.45 519.147,260.427C519.147,225.407 512.277,191.41 498.727,159.373C485.65,128.46 466.94,100.703 443.12,76.88C419.297,53.06 391.543,34.35 360.627,21.2733C328.593,7.72333 294.593,0.853333 259.573,0.853333ZM259.573,50.8533C375.317,50.8533 469.147,144.683 469.147,260.427C469.147,376.173 375.317,470 259.573,470C143.83,470 50,376.173 50,260.427C50,144.683 143.83,50.8533 259.573,50.8533Z" style="fill:url(#tag2);"/>
        <path d="M259.573,50.8533C143.83,50.8533 50,144.683 50,260.427C50,376.173 143.83,470 259.573,470C375.317,470 469.147,376.173 469.147,260.427C469.147,144.683 375.317,50.8533 259.573,50.8533ZM259.573,55.8533C287.193,55.8533 313.983,61.2633 339.2,71.9267C363.56,82.23 385.44,96.9833 404.23,115.77C423.02,134.56 437.77,156.44 448.073,180.8C458.74,206.017 464.147,232.81 464.147,260.427C464.147,288.047 458.74,314.837 448.073,340.057C437.77,364.417 423.02,386.293 404.23,405.083C385.44,423.873 363.56,438.623 339.2,448.927C313.983,459.593 287.193,465 259.573,465C231.953,465 205.163,459.593 179.943,448.927C155.583,438.623 133.707,423.873 114.917,405.083C96.1267,386.293 81.3767,364.417 71.0733,340.057C60.4067,314.837 55,288.047 55,260.427C55,232.81 60.4067,206.017 71.0733,180.8C81.3767,156.44 96.1267,134.56 114.917,115.77C133.707,96.9833 155.583,82.23 179.943,71.9267C205.163,61.2633 231.953,55.8533 259.573,55.8533Z" style="fill:url(#tag3);"/>
        <g>
            <path d="M205.795,371.729L234.67,364.452L157.75,335.582L205.795,371.729Z" style="fill:rgb(254,254,254);fill-rule:nonzero;"/>
        </g>
        <g>
            <path d="M284.811,364.452L313.686,371.729L361.731,335.582L284.811,364.452Z" style="fill:rgb(254,254,254);fill-rule:nonzero;"/>
        </g>
        <g>
            <path d="M313.199,369.306L292.274,364.033L348.013,343.111L313.199,369.306ZM206.282,369.306L171.468,343.111L227.207,364.033L206.282,369.306ZM365.143,109.1L333.128,193.041C342.323,200.414 350.47,209.065 357.435,218.679C343.672,205.367 326.955,194.665 307.799,187.689C255.546,168.678 199.343,182.565 161.883,218.771C168.978,208.979 177.158,200.402 186.145,193.178L154.004,109.1L123.2,286.034L161.203,390.417L259.702,443.8L358.502,390.183L396.3,286.402L365.143,109.1Z" style="fill:rgb(24,25,28);fill-rule:nonzero;"/>
        </g>
        <g>
            <path d="M259.702,443.8L358.502,390.183L278.917,401.02L259.661,320.758L259.702,443.8Z" style="fill:rgb(58,59,62);fill-rule:nonzero;"/>
        </g>
    </g>
    <defs>
        <linearGradient id="tag1" x1="0" y1="0" x2="1" y2="0" gradientUnits="userSpaceOnUse" gradientTransform="matrix(-1.83216e-05,419.149,-419.149,-1.83216e-05,259.574,50.852)"><stop offset="0%" style="stop-color:rgb(243,243,244);stop-opacity:1"/><stop offset="100%" style="stop-color:rgb(140,143,147);stop-opacity:1"/></linearGradient>
        <linearGradient id="tag2" x1="0" y1="0" x2="1" y2="0" gradientUnits="userSpaceOnUse" gradientTransform="matrix(-2.26927e-05,519.149,-519.149,-2.26927e-05,259.574,0.851979)"><stop offset="0%" style="stop-color:rgb(80,82,87);stop-opacity:1"/><stop offset="70%" style="stop-color:rgb(24,24,27);stop-opacity:1"/><stop offset="100%" style="stop-color:rgb(24,24,27);stop-opacity:1"/></linearGradient>
        <linearGradient id="tag3" x1="0" y1="0" x2="1" y2="0" gradientUnits="userSpaceOnUse" gradientTransform="matrix(-1.83215e-05,-419.148,419.148,-1.83215e-05,259.575,470)"><stop offset="0%" style="stop-color:rgb(243,243,244);stop-opacity:1"/><stop offset="35%" style="stop-color:rgb(44,45,49);stop-opacity:1"/><stop offset="40%" style="stop-color:rgb(24,24,27);stop-opacity:1"/><stop offset="50%" style="stop-color:rgb(24,24,27);stop-opacity:1"/><stop offset="100%" style="stop-color:rgb(31,29,31);stop-opacity:1"/></linearGradient>
    </defs>
</svg>
